<?xml version="1.0" encoding="UTF-8"?>
<svg id="Layer_1" data-name="Layer 1" xmlns="http://www.w3.org/2000/svg" viewBox="0 0 800 800">
  <defs>
    <style>
      .cls-1 {
        fill: #ccac6f;
      }

      .cls-2 {
        fill: #5d0c1d;
      }
    </style>
  </defs>
  <g>
    <path class="cls-1" d="m267.67,482.56h-7.91v13.95c0,1.93-1.61,3.54-3.6,3.54s-3.54-1.61-3.54-3.54v-37.94c0-1.99,1.61-3.54,3.54-3.54h11.51c7.65,0,13.83,6.17,13.83,13.82s-6.17,13.7-13.83,13.7Zm-7.91-7.14h7.91c3.73,0,6.62-2.96,6.69-6.56-.06-3.73-2.96-6.69-6.69-6.69h-7.91v13.25Z"/>
    <path class="cls-1" d="m309.21,471.3c0,1.8-1.48,3.41-3.41,3.41-1.48,0-2.77.39-3.86,1.22-1.22.77-2.19,1.86-2.96,3.09-1.54,2.06-2.32,4.5-2.64,5.4v12.22c0,1.86-1.61,3.41-3.54,3.41s-3.41-1.54-3.41-3.41v-25.34c0-1.86,1.54-3.34,3.41-3.34s3.54,1.48,3.54,3.34v.45c.39-.45.9-.96,1.35-1.29,2.12-1.41,4.89-2.57,8.1-2.51,1.93,0,3.41,1.48,3.41,3.34Z"/>
    <path class="cls-1" d="m324.64,459.86c0,1.93-1.48,3.54-3.47,3.54s-3.47-1.61-3.47-3.54v-1.35c0-1.93,1.54-3.47,3.47-3.47s3.47,1.54,3.47,3.47v1.35Zm0,11.64v25.08c0,1.93-1.48,3.47-3.47,3.47s-3.47-1.54-3.47-3.47v-25.08c0-2.06,1.54-3.54,3.47-3.54s3.47,1.48,3.47,3.54Z"/>
    <path class="cls-1" d="m361.09,473.04l-10.54,24.95c-.07.19-.19.38-.26.45,0,.06-.06.06-.06.06-.13.13-.26.32-.39.45,0,.07-.07.07-.07.07-.13.19-.26.26-.38.38,0,0-.07,0-.07.07-.13.13-.26.26-.45.32h-.13v.07c-.19,0-.39.06-.52.13h-.13c-.26.06-.45.06-.64.06-.13,0-.32,0-.58-.06h-.13c-.19-.07-.32-.13-.52-.13v-.07h-.13c-.19-.06-.32-.19-.58-.32,0-.07-.06-.07-.06-.07-.13-.13-.26-.19-.39-.38q-.06,0-.13-.07c-.06-.13-.19-.32-.32-.45q-.06,0-.06-.06c-.13-.07-.19-.26-.26-.45l-10.42-24.95c-.77-1.74.07-3.6,1.87-4.37,1.54-.77,3.54.13,4.31,1.86l7.39,17.49,7.46-17.49c.71-1.74,2.64-2.64,4.31-1.86,1.8.77,2.64,2.64,1.86,4.37Z"/>
    <path class="cls-1" d="m398.71,484.04v12.6c0,1.86-1.54,3.41-3.41,3.41-1.67,0-2.96-1.22-3.34-2.76-2.44,1.74-5.34,2.76-8.55,2.76-4.37,0-8.17-1.8-10.93-4.69-2.77-2.96-4.37-6.94-4.37-11.32s1.61-8.42,4.37-11.32c2.76-2.96,6.56-4.82,10.93-4.82,3.22,0,6.11,1.09,8.55,2.83.39-1.61,1.67-2.83,3.34-2.83,1.86,0,3.41,1.54,3.41,3.47v12.67Zm-6.82,0c0-2.7-.96-5.01-2.51-6.62-1.54-1.74-3.73-2.64-5.98-2.64s-4.5.9-5.98,2.64c-1.54,1.61-2.44,3.92-2.44,6.62s.9,4.95,2.44,6.62c1.48,1.61,3.67,2.51,5.98,2.51s4.44-.9,5.98-2.51c1.54-1.67,2.51-3.99,2.51-6.62Z"/>
    <path class="cls-1" d="m425.78,471.43c0,1.93-1.67,3.54-3.6,3.54h-1.61v17.94c1.99,0,3.54,1.61,3.54,3.6s-1.54,3.54-3.54,3.54c-3.92,0-7.14-3.22-7.14-7.14v-17.94h-1.86c-1.99,0-3.54-1.61-3.54-3.54s1.54-3.54,3.54-3.54h1.86v-9.32c0-1.99,1.61-3.54,3.6-3.54s3.54,1.54,3.54,3.54v9.32h1.61c1.93,0,3.6,1.54,3.6,3.54Z"/>
    <path class="cls-1" d="m432.21,483.97c.07-8.75,6.88-16.08,15.69-16.08s14.98,6.24,15.5,14.92v.32c0,.13,0,.45-.06.58-.19,1.54-1.54,2.57-3.34,2.57h-20.45c.32,1.48,1.03,3.15,2.19,4.24,1.35,1.54,3.92,2.7,6.17,2.89,2.31.19,5.08-.38,6.69-1.61,1.35-1.41,3.99-1.22,4.82-.19.84.9,1.48,2.83,0,4.18-3.15,2.89-6.94,4.24-11.51,4.24-8.81-.06-15.63-7.33-15.69-16.07Zm7.01-3.15h18.2c-.64-2.57-3.92-6.37-9.52-6.82-5.47.26-8.17,4.18-8.68,6.82Z"/>
    <path class="cls-1" d="m493.61,496.51v-37.94c0-1.93,1.54-3.54,3.54-3.54s3.6,1.61,3.6,3.54v34.34h17.43c1.86,0,3.54,1.61,3.54,3.6s-1.67,3.54-3.54,3.54h-21.03c-1.99,0-3.54-1.61-3.54-3.54Z"/>
    <path class="cls-1" d="m536.12,459.86c0,1.93-1.48,3.54-3.47,3.54s-3.47-1.61-3.47-3.54v-1.35c0-1.93,1.54-3.47,3.47-3.47s3.47,1.54,3.47,3.47v1.35Zm0,11.64v25.08c0,1.93-1.48,3.47-3.47,3.47s-3.47-1.54-3.47-3.47v-25.08c0-2.06,1.54-3.54,3.47-3.54s3.47,1.48,3.47,3.54Z"/>
    <path class="cls-1" d="m574.06,481.21v15.43c0,1.86-1.54,3.41-3.41,3.41s-3.47-1.54-3.47-3.41v-15.43c-.06-3.54-3.02-6.43-6.62-6.43s-6.49,2.96-6.49,6.62v15.24c0,.13-.07.32-.07.45v.19c-.06.13-.06.26-.19.38v.32c-.58,1.16-1.86,2.06-3.22,2.06-.26,0-.45-.06-.64-.06-1.54-.39-2.77-1.67-2.77-3.34v-25.27c0-1.99,1.54-3.47,3.41-3.47,1.35,0,2.57.71,3.09,1.93,2.06-1.22,4.44-1.93,6.88-1.93,4.05,0,7.65,1.67,10.1,4.44,2.38-2.77,6.04-4.44,10.1-4.44,7.39,0,13.37,6.05,13.37,13.5v15.24c0,1.86-1.54,3.41-3.41,3.41s-3.47-1.54-3.47-3.41v-15.24c0-3.67-2.96-6.62-6.49-6.62s-6.56,2.89-6.69,6.43Z"/>
    <path class="cls-1" d="m615.34,459.86c0,1.93-1.48,3.54-3.47,3.54s-3.47-1.61-3.47-3.54v-1.35c0-1.93,1.54-3.47,3.47-3.47s3.47,1.54,3.47,3.47v1.35Zm0,11.64v25.08c0,1.93-1.48,3.47-3.47,3.47s-3.47-1.54-3.47-3.47v-25.08c0-2.06,1.54-3.54,3.47-3.54s3.47,1.48,3.47,3.54Z"/>
    <path class="cls-1" d="m640.86,471.43c0,1.93-1.67,3.54-3.6,3.54h-1.61v17.94c1.99,0,3.54,1.61,3.54,3.6s-1.54,3.54-3.54,3.54c-3.92,0-7.14-3.22-7.14-7.14v-17.94h-1.86c-1.99,0-3.54-1.61-3.54-3.54s1.54-3.54,3.54-3.54h1.86v-9.32c0-1.99,1.61-3.54,3.6-3.54s3.54,1.54,3.54,3.54v9.32h1.61c1.93,0,3.6,1.54,3.6,3.54Z"/>
    <path class="cls-1" d="m647.29,483.97c.07-8.75,6.88-16.08,15.69-16.08s14.98,6.24,15.5,14.92v.32c0,.13,0,.45-.06.58-.19,1.54-1.54,2.57-3.34,2.57h-20.45c.32,1.48,1.03,3.15,2.19,4.24,1.35,1.54,3.92,2.7,6.17,2.89,2.31.19,5.08-.38,6.69-1.61,1.35-1.41,3.99-1.22,4.82-.19.84.9,1.48,2.83,0,4.18-3.15,2.89-6.94,4.24-11.51,4.24-8.81-.06-15.63-7.33-15.69-16.07Zm7.01-3.15h18.2c-.64-2.57-3.92-6.37-9.52-6.82-5.47.26-8.17,4.18-8.68,6.82Z"/>
    <path class="cls-1" d="m717.83,496.58c0,1.86-1.54,3.47-3.47,3.47-1.74,0-3.09-1.22-3.41-2.76-2.44,1.67-5.53,2.76-8.75,2.76-8.68,0-15.63-7.33-15.63-16.01s6.94-16.14,15.63-16.14c3.15,0,6.24,1.03,8.62,2.7v-12.09c0-1.86,1.54-3.47,3.54-3.47s3.47,1.61,3.47,3.47v38.07Zm-15.63-21.67c-2.31,0-4.44.96-6.04,2.64-1.61,1.61-2.57,3.92-2.57,6.49s.96,4.76,2.57,6.37c1.61,1.67,3.73,2.64,6.04,2.64s4.44-.96,6.05-2.64c1.61-1.61,2.57-3.92,2.57-6.37,0-2.57-.96-4.89-2.57-6.49-1.61-1.67-3.67-2.64-6.05-2.64Z"/>
  </g>
  <g>
    <path class="cls-2" d="m360.53,422.89c4.54,8.39-5.48,17.97-13.38,11.99-3.51-3.01-11.74-10.02-15.11-13.03-23.57,27.01-83.13,19.57-84.08-21.89,0-17.14,8.51-29.47,25.54-37-12.85-14.96-6.01-37.24,11.21-45.52,15.82-8.21,38.31-2.43,47.99,13.26,3.25,5.33,1.42,10.73-2.23,13.4-3.32,2.42-8.13,2.59-12.01-1.58-12.7-18.12-42.57-10.55-25.58,13.06,11.84,14.1,19.82,21.16,36.22,37.26,2.31-5.21,5.56-10.55,6.49-16.8.65-4.61,3.47-5.86,8.34-5.91,7.33,1.03,9.45,5.97,9.14,12.06-.43,8.37-7.09,18.5-9.54,24.02,5.57,5.38,12.84,10.35,17.02,16.68Zm-42.74-13.55c-13.28-11.99-22.7-21.51-31.97-32.49-17.59,3.4-21.95,23.56-10.16,35.18,9.55,9.13,31.97,8.6,42.13-2.69Z"/>
    <path class="cls-2" d="m488.76,317.44c1.74,1.85,2.61,4.17,2.61,6.95v101.28c0,3.01-1.02,5.53-3.04,7.55-2.03,2.03-4.55,3.04-7.56,3.04-1.62,0-3.21-.26-4.78-.78-1.56-.52-2.69-1.24-3.39-2.17l-63.76-80.95v74.18c0,2.78-.9,5.1-2.69,6.95-1.8,1.85-4.14,2.78-7.04,2.78s-5.04-.93-6.77-2.78c-1.74-1.85-2.61-4.17-2.61-6.95v-101.28c0-3.01,1.01-5.53,3.04-7.56,2.03-2.02,4.54-3.04,7.56-3.04,1.74,0,3.44.35,5.13,1.04,1.68.7,2.92,1.62,3.73,2.78l63.23,80.61v-74.7c0-2.78.9-5.1,2.69-6.95,1.79-1.85,4.08-2.78,6.86-2.78s5.04.93,6.78,2.78Z"/>
    <path class="cls-2" d="m582.59,354.1c2,1.86,3,4.16,3,6.92v40.4c0,11.45-3.5,20.41-10.49,26.88-6.99,6.47-16.95,9.7-29.87,9.7s-22.85-3.23-29.79-9.7c-6.93-6.47-10.4-15.43-10.4-26.88v-40.4c0-2.76,1-5.06,3-6.92,2-1.85,4.52-2.78,7.58-2.78s5.58.93,7.58,2.78c2,1.86,3,4.16,3,6.92v40.4c0,6.47,1.59,11.27,4.76,14.39,3.17,3.13,7.93,4.69,14.27,4.69s11.28-1.56,14.45-4.69c3.17-3.13,4.76-7.93,4.76-14.39v-40.4c0-2.76,1-5.06,3-6.92,2-1.85,4.52-2.78,7.58-2.78s5.58.93,7.58,2.78Z"/>
    <path class="cls-2" d="m637.02,420.66c1.22,1.44,1.84,3.33,1.84,5.67,0,2.87-1.57,5.29-4.71,7.26-3.14,1.97-6.68,2.95-10.61,2.95-6.6,0-12.15-1.41-16.67-4.23-4.52-2.82-6.78-8.8-6.78-17.95v-71.9h-14.62c-2.55,0-4.68-.85-6.38-2.55-1.7-1.7-2.55-3.83-2.55-6.38s.85-4.49,2.55-6.14c1.7-1.65,3.83-2.47,6.38-2.47h14.62v-10.21c0-2.77.93-5.08,2.79-6.94,1.86-1.86,4.17-2.79,6.94-2.79s4.89.93,6.7,2.79c1.81,1.86,2.71,4.18,2.71,6.94v10.21h14.05c2.55,0,4.68.85,6.38,2.55,1.7,1.71,2.55,3.83,2.55,6.38s-.85,4.5-2.55,6.14c-1.7,1.65-3.83,2.47-6.38,2.47h-14.05v71.1c0,2.24.58,3.86,1.76,4.87,1.17,1.01,2.77,1.51,4.79,1.51.85,0,2.02-.21,3.51-.64,1.28-.53,2.5-.8,3.67-.8,1.49,0,2.85.72,4.07,2.15Z"/>
    <path class="cls-2" d="m644.29,418.44c0-2.76,1.53-5.09,4.58-7,1.64-.96,3.35-1.43,5.11-1.43,2.47,0,4.82,1.01,7.05,3.02,3.53,3.29,7.2,5.73,11.02,7.32,3.82,1.59,8.43,2.38,13.84,2.38,9.17-.32,13.75-3.44,13.75-9.38,0-3.08-1.56-5.41-4.67-7-3.11-1.59-7.96-3.18-14.54-4.77-6.82-1.69-12.37-3.39-16.66-5.09-4.29-1.69-7.99-4.27-11.1-7.71-3.11-3.45-4.67-8.09-4.67-13.92,0-5.09,1.61-9.51,4.85-13.28,3.23-3.76,7.46-6.68,12.69-8.75,5.23-2.07,10.78-3.1,16.66-3.1s11.98,1.01,17.98,3.02c5.99,2.02,10.69,4.98,14.1,8.91,1.53,1.7,2.29,3.61,2.29,5.73,0,2.44-1.12,4.45-3.35,6.04-1.65,1.17-3.53,1.75-5.64,1.75-2.59,0-4.7-.74-6.34-2.23-2.12-2.33-4.85-4.19-8.2-5.57-3.35-1.38-7.14-2.07-11.37-2.07-8.93,0-13.39,2.92-13.39,8.75,0,2.33.82,4.22,2.47,5.65,1.64,1.43,3.73,2.54,6.26,3.34,2.52.8,6.08,1.78,10.66,2.94,6.34,1.59,11.63,3.23,15.86,4.93,4.23,1.7,7.81,4.29,10.75,7.79,2.94,3.5,4.41,8.11,4.41,13.84,0,5.2-1.7,9.73-5.11,13.6-3.41,3.87-7.79,6.82-13.13,8.83-5.35,2.01-10.84,3.02-16.48,3.02-7.76,0-14.98-1.17-21.68-3.5-6.7-2.33-12.16-6.09-16.39-11.29-1.06-1.27-1.59-2.86-1.59-4.77Z"/>
  </g>
  <path class="cls-1" d="m237.84,468.2c-8.47-1.53-16.64-3.97-24.52-7.09,3.52-10.29,5.13-21.3,5.18-32.01-1.68,10.19-4.71,20.69-9.38,30.25-21.69-9.41-41.06-24.12-57.9-40.61,13.72-10.26,27.59-20.49,35.01-36.94,3.64-7.58,4.79-15.92,3.68-23.86,6.21,9.47,11.79,19.36,16.52,29.72,4.81,10.28,8.63,21.05,11.84,32.21-.32-11.61-2.48-23.2-5.74-34.48-10.09-34-31.12-64.01-56.4-88.54l-4.61-4.49s-4.69,4.41-4.69,4.41c-42.58,40.13-90.58,130.3-50.4,184.42-17.81-33.88-6.29-77.44,14.47-114.94-.78,9.15.9,18.55,4.68,26.69,3.87,8.53,8.91,15.97,14.71,22.73-5.6,3.72-11.01,7.63-15.82,12.12-13.46,12.18-20.6,32.31-13.85,49.9,14.05,33.96,61.82,37.91,88.37,17.71,10.36-7.54,17.64-17.78,22.38-29.17,8.66,1.87,17.52,2.66,26.45,1.99Zm-86.36-156.98c4.93,4.94,9.71,10.02,14.32,15.25-9.68-4.06-19.59-3.41-28.25.45,4.63-5.69,9.32-10.95,13.94-15.7Zm-24.15,46.19c7.39-20.61,31.2-27.96,45.14-9.12,5.88,8.22,5.99,18.99,1.79,28.17-6.82,14.48-19.49,23.42-32.68,31.92-11.97-14.38-21.71-32.71-14.25-50.97Zm56.67,130.42c-18.23,11.11-44.92,10.44-60.57-3.86-17.16-15.63-6.13-36.36,9.14-50.02,2.65-2.56,5.48-4.96,8.37-7.3,3.69,3.43,7.54,6.71,11.49,9.9,15.69,12.41,34.11,23.12,53.7,28.39-5.47,9.36-12.72,17.46-22.14,22.89Z"/>
</svg>