<?xml version="1.0" encoding="UTF-8"?>
<svg id="Layer_1" data-name="Layer 1" xmlns="http://www.w3.org/2000/svg" viewBox="0 0 800 800">
  <defs>
    <style>
      .cls-1 {
        fill: #ccac6f;
      }
    </style>
  </defs>
  <path class="cls-1" d="m602.9,549.4c-19.79-3.59-38.89-9.27-57.31-16.58,8.22-24.05,11.99-49.79,12.11-74.81-3.93,23.81-11.02,48.36-21.92,70.69-50.69-22-95.96-56.37-135.33-94.93,32.07-23.97,64.48-47.88,81.84-86.34,8.51-17.72,11.19-37.2,8.6-55.76,14.52,22.14,27.55,45.26,38.62,69.46,11.24,24.03,20.18,49.21,27.67,75.27-.74-27.14-5.81-54.22-13.43-80.59-23.59-79.46-72.74-149.62-131.81-206.95l-10.78-10.49s-10.95,10.3-10.95,10.3c-99.53,93.79-211.71,304.56-117.79,431.05-41.64-79.18-14.71-181.01,33.82-268.65-1.83,21.38,2.11,43.37,10.94,62.38,9.04,19.94,20.84,37.34,34.38,53.12-13.09,8.69-25.74,17.83-36.97,28.34-31.45,28.48-48.16,75.52-32.38,116.63,32.85,79.38,144.49,88.6,206.55,41.38,24.22-17.62,41.23-41.55,52.32-68.18,20.25,4.37,40.95,6.23,61.83,4.65Zm-201.86-366.92c11.53,11.54,22.69,23.43,33.46,35.65-22.62-9.5-45.79-7.97-66.04,1.05,10.83-13.3,21.79-25.6,32.58-36.7Zm-56.46,107.95c17.28-48.16,72.92-65.35,105.5-21.33,13.75,19.22,14,44.38,4.19,65.84-15.93,33.85-45.56,54.74-76.39,74.61-27.98-33.6-50.73-76.45-33.3-119.13Zm132.45,304.83c-42.61,25.97-105,24.41-141.56-9.02-40.1-36.52-14.32-84.98,21.36-116.91,6.21-5.98,12.8-11.6,19.57-17.07,8.62,8.02,17.62,15.68,26.85,23.13,36.67,29.01,79.72,54.03,125.52,66.35-12.79,21.88-29.73,40.81-51.74,53.5Z"/>
</svg>